<svg xmlns="http://www.w3.org/2000/svg" width="14" height="17" viewBox="0 0 14 17"><g><g><path fill="#616161" d="M4.859 7.919l.016-.016c.022-.044.05-.092.083-.142a.818.818 0 0 1 .099-.124c.187-.221.386-.432.595-.63l.628-.599c.463-.464.926-.935 1.388-1.411.473-.465.944-.932 1.413-1.403l1.397-1.402c.472-.476.946-.94 1.42-1.395.154-.144.35-.268.587-.373.237-.105.45-.142.637-.108.473.077.751.329.834.755.082.426-.058.828-.422 1.204-.473.476-.947.957-1.421 1.444l-1.43 1.436-1.429 1.436c-.484.476-.97.946-1.454 1.411-.22.222-.33.413-.33.573 0 .161.11.351.33.573.485.465.964.929 1.438 1.394.473.476.944.952 1.413 1.428.468.476.939.952 1.412 1.428.474.476.943.952 1.406 1.427.33.332.507.648.528.947.022.299-.093.57-.347.813-.264.243-.536.354-.818.332-.28-.022-.576-.188-.884-.498a1024.259 1024.259 0 0 1-6.875-6.906 2.221 2.221 0 0 1-.099-.108 1.203 1.203 0 0 1-.082-.108 1.528 1.528 0 0 1-.166-.332 1.123 1.123 0 0 1-.008-.739 1.47 1.47 0 0 1 .14-.307zM2.397 17H0V0h2.397z"/></g></g></svg>