<svg xmlns="http://www.w3.org/2000/svg" width="15" height="13" viewBox="0 0 15 13"><g><g><path fill="#212121" d="M11.381 10.4c.175 0 .324.062.445.187a.632.632 0 0 1 .182.457c0 .18-.057.333-.172.458a.586.586 0 0 1-.455.187.632.632 0 0 1-.647-.645.632.632 0 0 1 .647-.644zm-1.344-.728a1.92 1.92 0 0 0-.556 1.372c0 .528.189.985.566 1.374.377.387.822.582 1.334.582.513 0 .954-.195 1.324-.582.371-.389.556-.846.556-1.374a1.92 1.92 0 0 0-.556-1.372c-.37-.388-.811-.583-1.324-.583-.525 0-.973.195-1.344.583zm-4.356.728a.632.632 0 0 1 .647.645c0 .18-.064.332-.193.457a.629.629 0 0 1-.454.187.595.595 0 0 1-.445-.187.632.632 0 0 1-.182-.458c0-.18.06-.333.182-.457a.597.597 0 0 1 .445-.187zm-1.325-.728c-.37.388-.555.85-.555 1.383s.181.991.545 1.373c.364.382.809.572 1.335.572.525 0 .973-.195 1.344-.582.37-.389.556-.846.556-1.374a1.92 1.92 0 0 0-.556-1.372 1.792 1.792 0 0 0-1.344-.583c-.513 0-.954.195-1.325.583zM.626 0a.595.595 0 0 0-.444.187A.631.631 0 0 0 0 .645c0 .18.06.332.182.457.121.125.27.187.445.187h1.415l1.657 6.823c.068.291.216.527.445.706.23.18.485.271.768.271h7.258c.283 0 .535-.09.758-.27.222-.18.367-.41.434-.686L15 1.933H4.427l.324 1.312h8.611L12.17 7.8H4.912L3.255.977A1.244 1.244 0 0 0 2.82.27 1.2 1.2 0 0 0 2.042 0z"/></g></g></svg>