<svg xmlns="http://www.w3.org/2000/svg" width="24" height="21" viewBox="0 0 24 21"><g><g><path fill="#212121" d="M18.016 16.808a.996.996 0 0 0-.736.288.958.958 0 0 0-.288.704c0 .277.096.512.288.704a.996.996 0 0 0 .736.288c.299 0 .539-.096.72-.288a.99.99 0 0 0 .272-.704.958.958 0 0 0-.288-.704.958.958 0 0 0-.704-.288zm0-2.016h1.248c.448 0 .848-.139 1.2-.416.352-.277.58-.629.688-1.056l2.592-9.536H7.008L7.52 5.8h13.632l-1.888 7.008H7.776L5.152 2.312A1.935 1.935 0 0 0 3.232.808H.992a.958.958 0 0 0-.704.288A.958.958 0 0 0 0 1.8c0 .277.096.512.288.704a.958.958 0 0 0 .704.288h2.24l2.624 10.496c.107.448.34.811.704 1.088.363.277.768.416 1.216.416H18.016zm2.096.896c.587.597.88 1.301.88 2.112 0 .811-.293 1.515-.88 2.112-.587.597-1.285.896-2.096.896-.811 0-1.515-.299-2.112-.896-.597-.597-.896-1.3-.896-2.112 0-.811.293-1.515.88-2.112a2.875 2.875 0 0 1 2.12-.896h.016c.808.002 1.503.301 2.088.896zm-11.12 1.12a.958.958 0 0 0-.704.288A.958.958 0 0 0 8 17.8c0 .277.096.512.288.704a.958.958 0 0 0 .704.288c.277 0 .517-.096.72-.288a.932.932 0 0 0 .304-.704.958.958 0 0 0-.288-.704.996.996 0 0 0-.736-.288zm2.128-1.12c.587.597.88 1.301.88 2.112 0 .811-.293 1.515-.88 2.112a2.875 2.875 0 0 1-2.128.896c-.832 0-1.536-.293-2.112-.88a2.908 2.908 0 0 1-.864-2.112c0-.82.293-1.53.88-2.128.585-.595 1.28-.894 2.088-.896H9a2.874 2.874 0 0 1 2.12.896z"/></g></g></svg>