<svg xmlns="http://www.w3.org/2000/svg" width="16" height="14" viewBox="0 0 16 14"><g><g><path fill="#212121" d="M5.66 1.82c.331.137.663.315.994.532.24.171.469.354.686.548l.257.24.394.446.395-.446.257-.24c.217-.194.445-.377.685-.548.332-.217.664-.395.995-.532.4-.16.783-.24 1.148-.24a2.85 2.85 0 0 1 1.483.403c.451.268.809.629 1.072 1.08.262.452.394.94.394 1.465 0 .24-.086.532-.257.875-.126.24-.292.486-.497.737l-.258.326-5.417 5.417-5.588-5.589a3.335 3.335 0 0 1-.36-.462c-.32-.491-.48-.926-.48-1.304 0-.525.131-1.013.394-1.465.263-.451.62-.812 1.071-1.08a2.851 2.851 0 0 1 1.483-.403c.366 0 .75.08 1.149.24zM4.51.5c-.72 0-1.388.183-2.005.549A4.075 4.075 0 0 0 1.04 2.523 3.912 3.912 0 0 0 .5 4.528c0 .573.223 1.207.669 1.904.125.194.274.383.445.565l6.377 6.412.395-.378 5.983-6.017a4.463 4.463 0 0 0 .926-1.423c.136-.353.205-.708.205-1.063a3.86 3.86 0 0 0-.549-2.005 4.142 4.142 0 0 0-1.474-1.474A3.867 3.867 0 0 0 11.471.5c-1.268 0-2.428.526-3.48 1.577C6.941 1.026 5.78.5 4.511.5z"/></g></g></svg>