<svg xmlns="http://www.w3.org/2000/svg" width="14" height="17" viewBox="0 0 14 17"><g><g><path fill="#616161" d="M11.602 17h2.396V0h-2.396zM9.139 7.903a3.807 3.807 0 0 1-.1-.142.818.818 0 0 0-.098-.124 8.244 8.244 0 0 0-.595-.63 29.072 29.072 0 0 1-.612-.599A80.57 80.57 0 0 1 6.33 4.997L4.933 3.594c-.468-.47-.94-.938-1.413-1.402-.474-.476-.948-.94-1.42-1.395a1.854 1.854 0 0 0-.57-.373C1.291.319 1.08.282.892.316.419.393.138.645.05 1.071c-.089.426.055.828.43 1.204.473.476.947.957 1.42 1.444.474.476.948.955 1.422 1.436A114 114 0 0 0 4.76 6.591c.473.476.953.946 1.438 1.411.22.222.332.413.338.573.006.161-.108.351-.338.573l-1.422 1.394-1.421 1.428c-.474.476-.942.952-1.405 1.428L.53 14.825c-.331.332-.508.648-.53.947-.022.299.1.57.364.813.253.243.523.354.81.332.286-.022.584-.188.891-.498a996.742 996.742 0 0 0 6.876-6.906.868.868 0 0 0 .09-.108l.075-.108c.077-.099.134-.21.173-.332a1.283 1.283 0 0 0 .008-.739.948.948 0 0 0-.148-.307z"/></g></g></svg>