<svg xmlns="http://www.w3.org/2000/svg" width="20" height="21" viewBox="0 0 20 21"><g><g><path fill="#212121" d="M12.19 2.52c.72.42 1.29.985 1.71 1.695.42.71.63 1.495.63 2.355 0 .86-.21 1.645-.63 2.355a4.747 4.747 0 0 1-1.694 1.695 4.54 4.54 0 0 1-2.355.63 4.54 4.54 0 0 1-2.355-.63A4.747 4.747 0 0 1 5.8 8.925a4.539 4.539 0 0 1-.63-2.355c0-.86.21-1.645.63-2.355.42-.71.985-1.275 1.695-1.695a4.54 4.54 0 0 1 2.355-.63c.84 0 1.62.21 2.34.63zM9.85 0C8.67 0 7.577.295 6.567.885a6.577 6.577 0 0 0-2.4 2.4A6.4 6.4 0 0 0 3.28 6.57c0 1.1.265 2.13.795 3.09s1.235 1.75 2.115 2.37c-1.7.72-3.07 1.85-4.11 3.39a9.051 9.051 0 0 0-1.62 5.22h1.89c0-1.36.335-2.615 1.005-3.765a7.449 7.449 0 0 1 2.73-2.73A7.348 7.348 0 0 1 9.85 13.14c1.36 0 2.615.335 3.765 1.005 1.15.67 2.06 1.58 2.73 2.73a7.348 7.348 0 0 1 1.005 3.765h1.86c0-1.26-.25-2.47-.75-3.63a8.995 8.995 0 0 0-1.98-2.97 9.4 9.4 0 0 0-2.97-2.01 6.989 6.989 0 0 0 2.115-2.37c.53-.96.795-1.99.795-3.09a6.4 6.4 0 0 0-.885-3.285 6.577 6.577 0 0 0-2.4-2.4A6.401 6.401 0 0 0 9.85 0z"/></g></g></svg>