<svg xmlns="http://www.w3.org/2000/svg" width="19" height="20" viewBox="0 0 19 20"><g><g><path fill="#212121" d="M1.434 8.865c0-1.29.316-2.494.952-3.612a7.136 7.136 0 0 1 2.496-2.595 6.496 6.496 0 0 1 3.467-.998c1.232 0 2.388.333 3.469.998a7.037 7.037 0 0 1 2.457 2.595 7.207 7.207 0 0 1 .953 3.622 7.207 7.207 0 0 1-.953 3.621 7.08 7.08 0 0 1-2.457 2.575c-1.08.665-2.237 1-3.469 1.008-1.232.007-2.388-.323-3.467-.988a7.127 7.127 0 0 1-2.496-2.595 7.215 7.215 0 0 1-.952-3.631zM18.99 19.212a1.018 1.018 0 0 0-.276-.57l-3.963-4.15a8.625 8.625 0 0 0 1.848-4.19 9.058 9.058 0 0 0-.381-4.43 8.885 8.885 0 0 0-2.544-3.792C12.501 1.042 11.175.39 9.703.124a7.717 7.717 0 0 0-4.174.399c-1.409.546-2.603 1.44-3.581 2.684a8.886 8.886 0 0 0-1.83 4.2 9.058 9.058 0 0 0 .382 4.43 8.702 8.702 0 0 0 2.534 3.772 8.029 8.029 0 0 0 7.278 1.836 8.17 8.17 0 0 0 3.487-1.836l3.964 4.171c.139.147.32.22.542.22.222 0 .4-.077.533-.23a.665.665 0 0 0 .153-.558z"/></g></g></svg>