<svg xmlns="http://www.w3.org/2000/svg" width="16" height="16" viewBox="0 0 16 16"><g><g><path fill="#212121" d="M1.632 7.182c0-.973.25-1.88.752-2.722a5.5 5.5 0 0 1 1.97-1.956 5.309 5.309 0 0 1 2.738-.752c.972 0 1.885.25 2.738.752a5.417 5.417 0 0 1 1.94 1.956c.501.842.752 1.752.752 2.73s-.25 1.887-.752 2.73a5.452 5.452 0 0 1-1.94 1.94 5.372 5.372 0 0 1-2.738.76 5.25 5.25 0 0 1-2.738-.745 5.493 5.493 0 0 1-1.97-1.956 5.25 5.25 0 0 1-.752-2.737zm13.86 7.8a.754.754 0 0 0-.217-.43l-3.129-3.128a6.363 6.363 0 0 0 1.46-3.159 6.536 6.536 0 0 0-.302-3.34 6.69 6.69 0 0 0-2.008-2.857A6.503 6.503 0 0 0 8.16.594a6.363 6.363 0 0 0-3.295.3 6.556 6.556 0 0 0-2.827 2.024A6.55 6.55 0 0 0 .594 6.084a6.536 6.536 0 0 0 .3 3.34 6.552 6.552 0 0 0 2.001 2.842 6.442 6.442 0 0 0 2.737 1.384 6.613 6.613 0 0 0 3.009 0 6.557 6.557 0 0 0 2.753-1.384l3.13 3.144c.11.11.252.166.428.166a.542.542 0 0 0 .42-.173.486.486 0 0 0 .12-.421z"/></g></g></svg>